<?xml version="1.0" standalone="no"?>
<!DOCTYPE svg PUBLIC "-//W3C//DTD SVG 20010904//EN"
 "http://www.w3.org/TR/2001/REC-SVG-20010904/DTD/svg10.dtd">
<svg version="1.0" xmlns="http://www.w3.org/2000/svg"
 width="70.000000pt" height="86.000000pt" viewBox="0 0 70.000000 86.000000"
 preserveAspectRatio="xMidYMid meet">

<g transform="translate(0.000000,86.000000) scale(0.100000,-0.100000)"
fill="#000000" stroke="none">
<path d="M450 715 c4 -57 2 -60 -25 -35 l-25 23 0 -30 c0 -26 -6 -34 -37 -50
-44 -21 -83 -74 -83 -112 0 -15 -7 -37 -16 -49 -14 -20 -14 -22 0 -22 11 0 16
-10 17 -30 1 -16 3 -34 4 -40 1 -5 3 -15 4 -20 1 -7 15 -8 39 -4 l37 6 -41
-43 c-23 -24 -45 -54 -48 -66 -4 -12 -21 -34 -38 -48 -27 -23 -39 -26 -85 -23
l-53 3 0 -47 0 -48 240 0 240 0 0 158 c0 292 -25 405 -103 480 l-29 27 2 -30z"/>
</g>
</svg>
